<svg width="14" height="13" viewBox="0 0 14 13" fill="none" xmlns="http://www.w3.org/2000/svg">
<path fill-rule="evenodd" clip-rule="evenodd" d="M6.57811 10.0205L6.49132 9.91302L6.75178 10.2353L6.57811 10.0205ZM13.2404 0.210393C12.9583 -0.0565329 12.3833 0.0302811 12.0686 0.191955C11.9167 0.18653 9.88757 0.775691 9.63801 0.869007L1.5651 3.1238C1.22873 3.22145 0.783914 3.3625 0.707959 3.79545C0.686258 3.9224 0.686194 3.83453 0.697045 3.95714C0.697045 4.14161 0.740511 4.27832 0.924972 4.43891C0.946673 4.62879 4.5057 8.0923 4.96143 8.54477C5.64502 9.23704 6.33941 9.92824 7.03385 10.6194C7.66319 11.2531 8.42274 12.1005 9.09547 12.6463C9.30164 12.7288 9.35589 12.8026 9.5295 12.7733C9.96352 12.9187 10.2564 12.2611 10.3541 11.915C10.4626 11.5211 10.5711 11.1511 10.6796 10.7561C10.8858 9.98138 11.1136 9.21753 11.3307 8.43303L12.6219 3.83015C12.8389 3.21166 13.0017 2.48577 13.1862 1.84233C13.3164 1.37033 13.6528 0.591249 13.2404 0.210393Z" fill="#00F075"/>
</svg>
