<svg width="9" height="11" viewBox="0 0 9 11" fill="none" xmlns="http://www.w3.org/2000/svg">
<path fill-rule="evenodd" clip-rule="evenodd" d="M4.73387 2.47416C3.77285 2.27899 2.98022 3.01511 2.86134 3.78888C2.72263 4.75881 3.36657 5.47907 4.15917 5.64056C5.12018 5.82979 5.89296 5.11844 6.04157 4.32982C6.2199 3.36484 5.50665 2.62476 4.73387 2.47416ZM0.741116 4.50022C0.57269 3.13102 1.31578 1.97682 1.96967 1.39228C2.73254 0.720563 3.93135 0.228166 5.30848 0.550156C7.66644 1.10002 8.90481 3.76014 7.72583 5.96156C7.51777 6.34101 5.39763 9.3271 5.04096 9.85319C4.93198 10.0087 4.70407 10.3991 4.55546 10.4575C4.26815 10.5794 4.09978 10.189 3.97098 10.0186L2.17769 7.42786C1.45445 6.37569 0.889727 5.8397 0.741116 4.50022Z" fill="white"/>
</svg>
